<?xml version="1.0" encoding="UTF-8" standalone="no"?>
<svg
   class="main-svg"
   width="700"
   height="500"
   style=""
   viewBox="0 0 700 500"
   version="1.1"
   id="svg200"
   sodipodi:docname="Y1PlotEst.svg"
   inkscape:version="1.1.2 (b8e25be833, 2022-02-05)"
   xmlns:inkscape="http://www.inkscape.org/namespaces/inkscape"
   xmlns:sodipodi="http://sodipodi.sourceforge.net/DTD/sodipodi-0.dtd"
   xmlns="http://www.w3.org/2000/svg"
   xmlns:svg="http://www.w3.org/2000/svg">
  <sodipodi:namedview
     id="namedview202"
     pagecolor="#ffffff"
     bordercolor="#999999"
     borderopacity="1"
     inkscape:pageshadow="0"
     inkscape:pageopacity="0"
     inkscape:pagecheckerboard="0"
     showgrid="false"
     inkscape:zoom="1.438"
     inkscape:cx="349.79138"
     inkscape:cy="249.65229"
     inkscape:window-width="2560"
     inkscape:window-height="1494"
     inkscape:window-x="-11"
     inkscape:window-y="-11"
     inkscape:window-maximized="1"
     inkscape:current-layer="svg200" />
  <rect
     x="0"
     y="0"
     width="700"
     height="500"
     style="fill: rgb(255, 255, 255); fill-opacity: 1;"
     id="rect2" />
  <g
     inkscape:label=""
     transform="matrix(2.0102428,0,0,2.0102428,-259.88468,259.95046)"
     id="g700">
    <g
       id="g9636">
      <g
         style="fill:#000000;fill-opacity:1"
         id="g3758">
        <g
           id="use5540"
           transform="translate(301.48199,93.917999)">
          <path
             style="stroke:none"
             d="M 4.828125,-4.09375 4,-6.078125 c -0.03125,-0.078125 -0.046875,-0.125 -0.046875,-0.125 0,-0.0625 0.15625,-0.25 0.578125,-0.296875 0.109375,-0.015625 0.203125,-0.015625 0.203125,-0.1875 0,-0.125 -0.125,-0.125 -0.15625,-0.125 -0.40625,0 -0.828125,0.03125 -1.25,0.03125 -0.25,0 -0.859375,-0.03125 -1.109375,-0.03125 -0.0625,0 -0.1875,0 -0.1875,0.203125 C 2.03125,-6.5 2.140625,-6.5 2.265625,-6.5 c 0.59375,0 0.65625,0.09375 0.75,0.3125 l 1.171875,2.78125 -2.109375,2.265625 -0.125,0.109375 C 1.46875,-0.5 1,-0.34375 0.484375,-0.3125 c -0.125,0.015625 -0.21875,0.015625 -0.21875,0.203125 0,0.015625 0,0.109375 0.140625,0.109375 0.296875,0 0.625,-0.03125 0.921875,-0.03125 C 1.703125,-0.03125 2.09375,0 2.453125,0 2.515625,0 2.625,0 2.625,-0.203125 2.625,-0.296875 2.53125,-0.3125 2.515625,-0.3125 c -0.09375,0 -0.40625,-0.03125 -0.40625,-0.3125 0,-0.15625 0.15625,-0.3125 0.265625,-0.4375 L 3.40625,-2.140625 4.296875,-3.125 l 1,2.390625 c 0.046875,0.109375 0.0625,0.109375 0.0625,0.140625 0,0.078125 -0.203125,0.25 -0.578125,0.28125 C 4.671875,-0.296875 4.578125,-0.296875 4.578125,-0.125 4.578125,0 4.6875,0 4.71875,0 5,0 5.703125,-0.03125 5.984375,-0.03125 6.234375,-0.03125 6.84375,0 7.09375,0 c 0.0625,0 0.1875,0 0.1875,-0.1875 0,-0.125 -0.109375,-0.125 -0.1875,-0.125 -0.65625,0 -0.6875,-0.03125 -0.859375,-0.4375 C 5.859375,-1.671875 5.1875,-3.234375 4.953125,-3.828125 5.625,-4.53125 6.671875,-5.71875 7,-5.984375 7.28125,-6.234375 7.671875,-6.46875 8.265625,-6.5 c 0.125,-0.015625 0.21875,-0.015625 0.21875,-0.203125 0,0 0,-0.109375 -0.125,-0.109375 -0.296875,0 -0.640625,0.03125 -0.9375,0.03125 -0.375,0 -0.75,-0.03125 -1.109375,-0.03125 -0.0625,0 -0.1875,0 -0.1875,0.203125 0,0.0625 0.046875,0.09375 0.109375,0.109375 0.09375,0.015625 0.40625,0.03125 0.40625,0.3125 0,0.140625 -0.109375,0.265625 -0.1875,0.359375 z m 0,0"
             id="path275" />
        </g>
      </g>
    </g>
  </g>
  <g
     id="g2410"
     transform="matrix(2.0102428,0,0,2.0102428,-578.5062,79.62195)">
    <g
       style="fill:#000000;fill-opacity:1"
       id="g9998">
      <g
         id="use7576"
         transform="translate(292.29401,91.400002)">
        <path
           style="stroke:none"
           d="M 2.5,-6.921875 1.15625,-5.5625 1.328125,-5.390625 2.5,-6.40625 3.640625,-5.390625 3.8125,-5.5625 Z m 0,0"
           id="path271" />
      </g>
    </g>
    <g
       style="fill:#000000;fill-opacity:1"
       id="g9043">
      <g
         id="use9916"
         transform="translate(290.78601,93.917999)">
        <path
           style="stroke:none"
           d="M 5.953125,-5.671875 6.09375,-5.8125 C 6.390625,-6.109375 6.71875,-6.453125 7.390625,-6.5 7.5,-6.515625 7.59375,-6.515625 7.59375,-6.6875 c 0,-0.078125 -0.046875,-0.125 -0.125,-0.125 -0.265625,0 -0.546875,0.03125 -0.8125,0.03125 -0.34375,0 -0.6875,-0.03125 -1,-0.03125 -0.0625,0 -0.1875,0 -0.1875,0.1875 0,0.109375 0.09375,0.125 0.140625,0.125 0.078125,0 0.359375,0.015625 0.359375,0.234375 0,0.171875 -0.234375,0.421875 -0.265625,0.46875 L 3.390625,-3.125 2.296875,-6.09375 C 2.234375,-6.234375 2.234375,-6.25 2.234375,-6.265625 2.234375,-6.5 2.71875,-6.5 2.828125,-6.5 c 0.125,0 0.234375,0 0.234375,-0.203125 0,-0.109375 -0.125,-0.109375 -0.15625,-0.109375 -0.28125,0 -0.96875,0.03125 -1.25,0.03125 -0.25,0 -0.875,-0.03125 -1.125,-0.03125 -0.046875,0 -0.1875,0 -0.1875,0.203125 C 0.34375,-6.5 0.453125,-6.5 0.578125,-6.5 c 0.59375,0 0.640625,0.09375 0.734375,0.34375 L 2.53125,-2.875 c 0.015625,0.03125 0.046875,0.140625 0.046875,0.15625 0,0.03125 -0.40625,1.640625 -0.453125,1.828125 C 2,-0.34375 1.984375,-0.3125 1.1875,-0.3125 c -0.1875,0 -0.265625,0 -0.265625,0.203125 C 0.921875,0 1.03125,0 1.0625,0 c 0.265625,0 0.96875,-0.03125 1.25,-0.03125 0.28125,0 1,0.03125 1.28125,0.03125 0.0625,0 0.1875,0 0.1875,-0.203125 C 3.78125,-0.3125 3.6875,-0.3125 3.5,-0.3125 c -0.015625,0 -0.203125,0 -0.375,-0.015625 C 2.90625,-0.34375 2.84375,-0.375 2.84375,-0.484375 c 0,-0.078125 0.09375,-0.421875 0.140625,-0.625 l 0.359375,-1.40625 c 0.046875,-0.203125 0.0625,-0.21875 0.140625,-0.3125 z m 0,0"
           id="path263" />
      </g>
    </g>
    <g
       style="fill:#000000;fill-opacity:1"
       id="g6987">
      <g
         id="use4601"
         transform="translate(300.99799,93.917999)">
        <path
           style="stroke:none"
           d="m 6.5625,-2.296875 c 0.171875,0 0.359375,0 0.359375,-0.203125 0,-0.1875 -0.1875,-0.1875 -0.359375,-0.1875 H 1.171875 c -0.171875,0 -0.34375,0 -0.34375,0.1875 0,0.203125 0.171875,0.203125 0.34375,0.203125 z m 0,0"
           id="path255" />
      </g>
    </g>
    <g
       style="fill:#000000;fill-opacity:1"
       id="g6195">
      <g
         id="use4783"
         transform="translate(310.95999,93.917999)">
        <path
           style="stroke:none"
           d="M 5.953125,-5.671875 6.09375,-5.8125 C 6.390625,-6.109375 6.71875,-6.453125 7.390625,-6.5 7.5,-6.515625 7.59375,-6.515625 7.59375,-6.6875 c 0,-0.078125 -0.046875,-0.125 -0.125,-0.125 -0.265625,0 -0.546875,0.03125 -0.8125,0.03125 -0.34375,0 -0.6875,-0.03125 -1,-0.03125 -0.0625,0 -0.1875,0 -0.1875,0.1875 0,0.109375 0.09375,0.125 0.140625,0.125 0.078125,0 0.359375,0.015625 0.359375,0.234375 0,0.171875 -0.234375,0.421875 -0.265625,0.46875 L 3.390625,-3.125 2.296875,-6.09375 C 2.234375,-6.234375 2.234375,-6.25 2.234375,-6.265625 2.234375,-6.5 2.71875,-6.5 2.828125,-6.5 c 0.125,0 0.234375,0 0.234375,-0.203125 0,-0.109375 -0.125,-0.109375 -0.15625,-0.109375 -0.28125,0 -0.96875,0.03125 -1.25,0.03125 -0.25,0 -0.875,-0.03125 -1.125,-0.03125 -0.046875,0 -0.1875,0 -0.1875,0.203125 C 0.34375,-6.5 0.453125,-6.5 0.578125,-6.5 c 0.59375,0 0.640625,0.09375 0.734375,0.34375 L 2.53125,-2.875 c 0.015625,0.03125 0.046875,0.140625 0.046875,0.15625 0,0.03125 -0.40625,1.640625 -0.453125,1.828125 C 2,-0.34375 1.984375,-0.3125 1.1875,-0.3125 c -0.1875,0 -0.265625,0 -0.265625,0.203125 C 0.921875,0 1.03125,0 1.0625,0 c 0.265625,0 0.96875,-0.03125 1.25,-0.03125 0.28125,0 1,0.03125 1.28125,0.03125 0.0625,0 0.1875,0 0.1875,-0.203125 C 3.78125,-0.3125 3.6875,-0.3125 3.5,-0.3125 c -0.015625,0 -0.203125,0 -0.375,-0.015625 C 2.90625,-0.34375 2.84375,-0.375 2.84375,-0.484375 c 0,-0.078125 0.09375,-0.421875 0.140625,-0.625 l 0.359375,-1.40625 c 0.046875,-0.203125 0.0625,-0.21875 0.140625,-0.3125 z m 0,0"
           id="path267" />
      </g>
    </g>
    <g
       style="fill:#000000;fill-opacity:1"
       id="g5820">
      <g
         id="use6811"
         transform="translate(316.74399,95.412003)">
        <path
           style="stroke:none"
           d="m 2.328125,-4.4375 c 0,-0.1875 0,-0.1875 -0.203125,-0.1875 -0.453125,0.4375 -1.078125,0.4375 -1.359375,0.4375 v 0.25 c 0.15625,0 0.625,0 1,-0.1875 v 3.546875 c 0,0.234375 0,0.328125 -0.6875,0.328125 H 0.8125 V 0 c 0.125,0 0.984375,-0.03125 1.234375,-0.03125 0.21875,0 1.09375,0.03125 1.25,0.03125 V -0.25 H 3.03125 c -0.703125,0 -0.703125,-0.09375 -0.703125,-0.328125 z m 0,0"
           id="path259" />
      </g>
    </g>
  </g>
  <defs
     id="defs-ae23d4">
    <g
       class="clips"
       id="g16">
      <clipPath
         id="clipae23d4xyplot"
         class="plotclip">
        <rect
           width="540"
           height="320"
           id="rect4" />
      </clipPath>
      <clipPath
         class="axesclip"
         id="clipae23d4x">
        <rect
           x="80"
           y="0"
           width="540"
           height="500"
           id="rect7" />
      </clipPath>
      <clipPath
         class="axesclip"
         id="clipae23d4y">
        <rect
           x="0"
           y="100"
           width="700"
           height="320"
           id="rect10" />
      </clipPath>
      <clipPath
         class="axesclip"
         id="clipae23d4xy">
        <rect
           x="80"
           y="100"
           width="540"
           height="320"
           id="rect13" />
      </clipPath>
    </g>
    <g
       class="gradients"
       id="g18" />
    <g
       class="patterns"
       id="g20" />
  </defs>
  <g
     class="bglayer"
     id="g25">
    <rect
       class="bg"
       x="80"
       y="100"
       width="540"
       height="320"
       style="fill: rgb(229, 236, 246); fill-opacity: 1; stroke-width: 0;"
       id="rect23" />
  </g>
  <g
     class="layer-below"
     id="g31">
    <g
       class="imagelayer"
       id="g27" />
    <g
       class="shapelayer"
       id="g29" />
  </g>
  <g
     class="cartesianlayer"
     id="g161">
    <g
       class="subplot xy"
       id="g159">
      <g
         class="layer-subplot"
         id="g37">
        <g
           class="shapelayer"
           id="g33" />
        <g
           class="imagelayer"
           id="g35" />
      </g>
      <g
         class="gridlayer"
         id="g59">
        <g
           class="x"
           id="g47">
          <path
             class="xgrid crisp"
             transform="translate(177,0)"
             d="M0,100v320"
             style="stroke: rgb(255, 255, 255); stroke-opacity: 1; stroke-width: 1px;"
             id="path39" />
          <path
             class="xgrid crisp"
             transform="translate(372.16,0)"
             d="M0,100v320"
             style="stroke: rgb(255, 255, 255); stroke-opacity: 1; stroke-width: 1px;"
             id="path41" />
          <path
             class="xgrid crisp"
             transform="translate(469.73,0)"
             d="M0,100v320"
             style="stroke: rgb(255, 255, 255); stroke-opacity: 1; stroke-width: 1px;"
             id="path43" />
          <path
             class="xgrid crisp"
             transform="translate(567.31,0)"
             d="M0,100v320"
             style="stroke: rgb(255, 255, 255); stroke-opacity: 1; stroke-width: 1px;"
             id="path45" />
        </g>
        <g
           class="y"
           id="g57">
          <path
             class="ygrid crisp"
             transform="translate(0,366.67)"
             d="M80,0h540"
             style="stroke: rgb(255, 255, 255); stroke-opacity: 1; stroke-width: 1px;"
             id="path49" />
          <path
             class="ygrid crisp"
             transform="translate(0,313.33000000000004)"
             d="M80,0h540"
             style="stroke: rgb(255, 255, 255); stroke-opacity: 1; stroke-width: 1px;"
             id="path51" />
          <path
             class="ygrid crisp"
             transform="translate(0,206.67000000000002)"
             d="M80,0h540"
             style="stroke: rgb(255, 255, 255); stroke-opacity: 1; stroke-width: 1px;"
             id="path53" />
          <path
             class="ygrid crisp"
             transform="translate(0,153.32999999999998)"
             d="M80,0h540"
             style="stroke: rgb(255, 255, 255); stroke-opacity: 1; stroke-width: 1px;"
             id="path55" />
        </g>
      </g>
      <g
         class="zerolinelayer"
         id="g65">
        <path
           class="xzl zl crisp"
           transform="translate(274.58000000000004,0)"
           d="M0,100v320"
           style="stroke: rgb(255, 255, 255); stroke-opacity: 1; stroke-width: 2px;"
           id="path61" />
        <path
           class="yzl zl crisp"
           transform="translate(0,260)"
           d="M80,0h540"
           style="stroke: rgb(255, 255, 255); stroke-opacity: 1; stroke-width: 2px;"
           id="path63" />
      </g>
      <path
         class="xlines-below"
         id="path67" />
      <path
         class="ylines-below"
         id="path69" />
      <g
         class="overlines-below"
         id="g71" />
      <g
         class="xaxislayer-below"
         id="g73" />
      <g
         class="yaxislayer-below"
         id="g75" />
      <g
         class="overaxes-below"
         id="g77" />
      <g
         class="plot"
         transform="translate(80,100)"
         clip-path="url(#clipae23d4xyplot)"
         id="g95">
        <g
           class="scatterlayer mlayer"
           id="g93">
          <g
             class="trace scatter traceea485d"
             style="stroke-miterlimit: 2; opacity: 0.8;"
             id="g91">
            <g
               class="fills"
               id="g79" />
            <g
               class="errorbars"
               id="g81" />
            <g
               class="lines"
               id="g85">
              <path
                 class="js-line"
                 d="M0,160.19L33.8,160.5L56.55,159.74L63.06,160.42L67.67,159.57L69.11,158.98L80.73,159.18L86.45,165.03L89.11,159.32L91.35,162.97L91.38,159.75L91.85,159.42L106.88,160.82L108.34,157.89L114.38,164.87L123.27,161.88L124.94,163.32L138.57,162.89L139.5,151.32L140.84,161.69L143.69,162.78L144.88,155.19L147.84,154.19L153.2,161.35L163.86,154.84L165.72,167.24L168.49,164.68L178.78,167.49L179.32,142.47L179.74,162.34L184.12,152.01L184.73,161.47L185.69,157.9L185.69,161.51L187.24,159.2L189.31,161.43L190.39,169.27L190.62,157.1L194.07,149.6L197.04,150.34L197.35,155.98L208.92,164.19L209.93,153.1L212.62,174.49L213.59,167.79L214.8,144.08L215.33,162.46L216.24,173.82L217.02,145.21L223.52,149.89L226.82,160.98L227.3,156.45L228.32,170.37L232.2,158.79L232.66,167.34L233.19,156.66L233.3,171.7L233.88,144.21L236.17,151.29L240.65,164.26L243.33,159.05L244.91,162.39L244.95,154L246.06,155.19L247.31,182.25L248.56,140.89L248.65,159.4L249.83,164.38L250.46,150.12L253.94,162.21L254.99,150.97L255.67,174.43L256.57,171.32L258.31,145.35L259.38,161.77L262.35,164.08L265.08,160.51L265.78,150.24L267.01,160.7L268.76,152.69L270.45,158.47L271.72,145.71L272.94,169.72L273.52,170.4L273.9,143.61L275.13,146.68L275.18,172.25L275.36,169.73L278.25,156.23L278.76,151.45L279.79,154.51L280.31,146.27L282.79,142.86L283.56,165.79L286.13,150.02L286.9,166.37L288.39,157.23L288.97,152.43L289.57,167.06L291.72,141.07L291.83,161.05L291.89,151.21L294.05,161.65L294.06,162.26L294.85,164.53L296.29,180.37L297.26,148.24L299.14,150.11L299.19,144.96L299.84,144.2L301,159.08L301.95,161.01L302.07,152.21L304.08,153.89L304.5,180.68L304.81,166.15L308.84,172.62L310.92,161.09L311.69,142.18L311.93,168.62L314.66,150.1L316.16,174.72L317.32,161.72L318.06,166.17L318.79,156.01L320.69,149.48L320.86,165.95L321.46,172.41L322.31,170.45L324.59,183.41L324.73,154.9L325,167.89L327.61,145.48L328.18,168.46L329.55,176.14L330.71,140.07L330.71,155.9L332.09,166.88L332.35,163.51L332.91,166.86L340.38,159.37L341.36,161.84L345.89,164.54L346.7,153.63L347.48,166.18L350.43,169.29L350.55,173.72L350.84,167.69L351.02,159.18L351.83,159.38L353.57,149.29L356.93,162.42L366.13,154.43L367.9,168.27L368.23,159.16L368.64,163.17L369.76,151.72L372.8,141.61L373.36,165.29L374.66,163.58L375.69,164.02L378.21,152.19L385.86,158.71L386.94,156.64L390.38,165.18L390.46,151.06L390.87,162.39L391.83,162.57L395.34,166.13L398.64,156.01L399.99,154.34L401.25,158.1L403.56,163.34L409.07,160.2L415.8,163.65L417.99,157.6L419.47,159.66L425.61,160.15L429.31,163.32L430.76,159.07L433.32,157.67L443.14,161.25L448.99,158.06L451.32,160.7L458.89,159.93L459.9,163.18L462.81,161.07L491.49,159.69L498.28,160.88L500.79,159.4L540,159.86"
                 style="vector-effect: non-scaling-stroke; fill: none; stroke: rgb(255, 0, 0); stroke-opacity: 1; stroke-width: 2px; opacity: 1;"
                 id="path83" />
            </g>
            <g
               class="points"
               id="g87" />
            <g
               class="text"
               id="g89" />
          </g>
        </g>
      </g>
      <g
         class="overplot"
         id="g97" />
      <path
         class="xlines-above crisp"
         d="M0,0"
         style="fill: none;"
         id="path99" />
      <path
         class="ylines-above crisp"
         d="M0,0"
         style="fill: none;"
         id="path101" />
      <g
         class="overlines-above"
         id="g103" />
      <g
         class="xaxislayer-above"
         id="g125">
        <g
           class="xtick"
           id="g107">
          <text
             text-anchor="middle"
             x="0"
             y="433"
             transform="translate(177,0)"
             style="font-family: 'Open Sans', verdana, arial, sans-serif; font-size: 12px; fill: rgb(42, 63, 95); fill-opacity: 1; white-space: pre; opacity: 1;"
             id="text105">−5</text>
        </g>
        <g
           class="xtick"
           id="g111">
          <text
             text-anchor="middle"
             x="0"
             y="433"
             style="font-family: 'Open Sans', verdana, arial, sans-serif; font-size: 12px; fill: rgb(42, 63, 95); fill-opacity: 1; white-space: pre; opacity: 1;"
             transform="translate(274.58000000000004,0)"
             id="text109">0</text>
        </g>
        <g
           class="xtick"
           id="g115">
          <text
             text-anchor="middle"
             x="0"
             y="433"
             style="font-family: 'Open Sans', verdana, arial, sans-serif; font-size: 12px; fill: rgb(42, 63, 95); fill-opacity: 1; white-space: pre; opacity: 1;"
             transform="translate(372.16,0)"
             id="text113">5</text>
        </g>
        <g
           class="xtick"
           id="g119">
          <text
             text-anchor="middle"
             x="0"
             y="433"
             style="font-family: 'Open Sans', verdana, arial, sans-serif; font-size: 12px; fill: rgb(42, 63, 95); fill-opacity: 1; white-space: pre; opacity: 1;"
             transform="translate(469.73,0)"
             id="text117">10</text>
        </g>
        <g
           class="xtick"
           id="g123">
          <text
             text-anchor="middle"
             x="0"
             y="433"
             style="font-family: 'Open Sans', verdana, arial, sans-serif; font-size: 12px; fill: rgb(42, 63, 95); fill-opacity: 1; white-space: pre; opacity: 1;"
             transform="translate(567.31,0)"
             id="text121">15</text>
        </g>
      </g>
      <g
         class="yaxislayer-above"
         id="g155">
        <g
           class="ytick"
           id="g129">
          <text
             text-anchor="end"
             x="79"
             y="4.199999999999999"
             transform="translate(0,420)"
             style="font-family: 'Open Sans', verdana, arial, sans-serif; font-size: 12px; fill: rgb(42, 63, 95); fill-opacity: 1; white-space: pre; opacity: 1;"
             id="text127">−15</text>
        </g>
        <g
           class="ytick"
           id="g133">
          <text
             text-anchor="end"
             x="79"
             y="4.199999999999999"
             style="font-family: 'Open Sans', verdana, arial, sans-serif; font-size: 12px; fill: rgb(42, 63, 95); fill-opacity: 1; white-space: pre; opacity: 1;"
             transform="translate(0,366.67)"
             id="text131">−10</text>
        </g>
        <g
           class="ytick"
           id="g137">
          <text
             text-anchor="end"
             x="79"
             y="4.199999999999999"
             style="font-family: 'Open Sans', verdana, arial, sans-serif; font-size: 12px; fill: rgb(42, 63, 95); fill-opacity: 1; white-space: pre; opacity: 1;"
             transform="translate(0,313.33000000000004)"
             id="text135">−5</text>
        </g>
        <g
           class="ytick"
           id="g141">
          <text
             text-anchor="end"
             x="79"
             y="4.199999999999999"
             style="font-family: 'Open Sans', verdana, arial, sans-serif; font-size: 12px; fill: rgb(42, 63, 95); fill-opacity: 1; white-space: pre; opacity: 1;"
             transform="translate(0,260)"
             id="text139">0</text>
        </g>
        <g
           class="ytick"
           id="g145">
          <text
             text-anchor="end"
             x="79"
             y="4.199999999999999"
             style="font-family: 'Open Sans', verdana, arial, sans-serif; font-size: 12px; fill: rgb(42, 63, 95); fill-opacity: 1; white-space: pre; opacity: 1;"
             transform="translate(0,206.67000000000002)"
             id="text143">5</text>
        </g>
        <g
           class="ytick"
           id="g149">
          <text
             text-anchor="end"
             x="79"
             y="4.199999999999999"
             style="font-family: 'Open Sans', verdana, arial, sans-serif; font-size: 12px; fill: rgb(42, 63, 95); fill-opacity: 1; white-space: pre; opacity: 1;"
             transform="translate(0,153.32999999999998)"
             id="text147">10</text>
        </g>
        <g
           class="ytick"
           id="g153">
          <text
             text-anchor="end"
             x="79"
             y="4.199999999999999"
             style="font-family: 'Open Sans', verdana, arial, sans-serif; font-size: 12px; fill: rgb(42, 63, 95); fill-opacity: 1; white-space: pre; opacity: 1;"
             transform="translate(0,100)"
             id="text151">15</text>
        </g>
      </g>
      <g
         class="overaxes-above"
         id="g157" />
    </g>
  </g>
  <g
     class="polarlayer"
     id="g163" />
  <g
     class="smithlayer"
     id="g165" />
  <g
     class="ternarylayer"
     id="g167" />
  <g
     class="geolayer"
     id="g169" />
  <g
     class="funnelarealayer"
     id="g171" />
  <g
     class="pielayer"
     id="g173" />
  <g
     class="iciclelayer"
     id="g175" />
  <g
     class="treemaplayer"
     id="g177" />
  <g
     class="sunburstlayer"
     id="g179" />
  <g
     class="glimages"
     id="g181" />
  <defs
     id="topdefs-ae23d4">
    <g
       class="clips"
       id="g183" />
  </defs>
  <g
     class="layer-above"
     id="g190">
    <g
       class="imagelayer"
       id="g186" />
    <g
       class="shapelayer"
       id="g188" />
  </g>
  <g
     class="infolayer"
     id="g198">
    <g
       class="g-gtitle"
       id="g192" />
    <g
       class="g-xtitle"
       id="g194" />
    <g
       class="g-ytitle"
       id="g196" />
  </g>
</svg>
