<?xml version="1.0" encoding="UTF-8" standalone="no"?>
<svg
   sodipodi:docname="Y2PlotEst.svg"
   id="svg206"
   version="1.1"
   viewBox="0 0 700 500"
   style=""
   height="500"
   width="700"
   class="main-svg"
   inkscape:version="1.1.2 (b8e25be833, 2022-02-05)"
   xmlns:inkscape="http://www.inkscape.org/namespaces/inkscape"
   xmlns:sodipodi="http://sodipodi.sourceforge.net/DTD/sodipodi-0.dtd"
   xmlns:xlink="http://www.w3.org/1999/xlink"
   xmlns="http://www.w3.org/2000/svg"
   xmlns:svg="http://www.w3.org/2000/svg">
  <sodipodi:namedview
     id="namedview208"
     pagecolor="#ffffff"
     bordercolor="#999999"
     borderopacity="1"
     inkscape:pageshadow="0"
     inkscape:pageopacity="0"
     inkscape:pagecheckerboard="0"
     showgrid="false"
     inkscape:zoom="1.438"
     inkscape:cx="225.31293"
     inkscape:cy="324.0612"
     inkscape:window-width="2560"
     inkscape:window-height="1494"
     inkscape:window-x="-11"
     inkscape:window-y="-11"
     inkscape:window-maximized="1"
     inkscape:current-layer="svg206" />
  <rect
     x="0"
     y="0"
     width="700"
     height="500"
     style="fill: rgb(255, 255, 255); fill-opacity: 1;"
     id="rect2" />
  <defs
     id="defs-b3459a">
    <g
       class="clips"
       id="g16">
      <clipPath
         id="clipb3459axyplot"
         class="plotclip">
        <rect
           width="540"
           height="320"
           id="rect4" />
      </clipPath>
      <clipPath
         class="axesclip"
         id="clipb3459ax">
        <rect
           x="80"
           y="0"
           width="540"
           height="500"
           id="rect7" />
      </clipPath>
      <clipPath
         class="axesclip"
         id="clipb3459ay">
        <rect
           x="0"
           y="100"
           width="700"
           height="320"
           id="rect10" />
      </clipPath>
      <clipPath
         class="axesclip"
         id="clipb3459axy">
        <rect
           x="80"
           y="100"
           width="540"
           height="320"
           id="rect13" />
      </clipPath>
    </g>
    <g
       class="gradients"
       id="g18" />
    <g
       class="patterns"
       id="g20" />
    <g
       id="g6042">
      <symbol
         overflow="visible"
         id="symbol1048">
        <path
           style="stroke:none;"
           d=""
           id="path4582" />
      </symbol>
      <symbol
         overflow="visible"
         id="symbol2776">
        <path
           style="stroke:none;"
           d="M 4.828125 -4.09375 L 4 -6.078125 C 3.96875 -6.15625 3.953125 -6.203125 3.953125 -6.203125 C 3.953125 -6.265625 4.109375 -6.453125 4.53125 -6.5 C 4.640625 -6.515625 4.734375 -6.515625 4.734375 -6.6875 C 4.734375 -6.8125 4.609375 -6.8125 4.578125 -6.8125 C 4.171875 -6.8125 3.75 -6.78125 3.328125 -6.78125 C 3.078125 -6.78125 2.46875 -6.8125 2.21875 -6.8125 C 2.15625 -6.8125 2.03125 -6.8125 2.03125 -6.609375 C 2.03125 -6.5 2.140625 -6.5 2.265625 -6.5 C 2.859375 -6.5 2.921875 -6.40625 3.015625 -6.1875 L 4.1875 -3.40625 L 2.078125 -1.140625 L 1.953125 -1.03125 C 1.46875 -0.5 1 -0.34375 0.484375 -0.3125 C 0.359375 -0.296875 0.265625 -0.296875 0.265625 -0.109375 C 0.265625 -0.09375 0.265625 0 0.40625 0 C 0.703125 0 1.03125 -0.03125 1.328125 -0.03125 C 1.703125 -0.03125 2.09375 0 2.453125 0 C 2.515625 0 2.625 0 2.625 -0.203125 C 2.625 -0.296875 2.53125 -0.3125 2.515625 -0.3125 C 2.421875 -0.3125 2.109375 -0.34375 2.109375 -0.625 C 2.109375 -0.78125 2.265625 -0.9375 2.375 -1.0625 L 3.40625 -2.140625 L 4.296875 -3.125 L 5.296875 -0.734375 C 5.34375 -0.625 5.359375 -0.625 5.359375 -0.59375 C 5.359375 -0.515625 5.15625 -0.34375 4.78125 -0.3125 C 4.671875 -0.296875 4.578125 -0.296875 4.578125 -0.125 C 4.578125 0 4.6875 0 4.71875 0 C 5 0 5.703125 -0.03125 5.984375 -0.03125 C 6.234375 -0.03125 6.84375 0 7.09375 0 C 7.15625 0 7.28125 0 7.28125 -0.1875 C 7.28125 -0.3125 7.171875 -0.3125 7.09375 -0.3125 C 6.4375 -0.3125 6.40625 -0.34375 6.234375 -0.75 C 5.859375 -1.671875 5.1875 -3.234375 4.953125 -3.828125 C 5.625 -4.53125 6.671875 -5.71875 7 -5.984375 C 7.28125 -6.234375 7.671875 -6.46875 8.265625 -6.5 C 8.390625 -6.515625 8.484375 -6.515625 8.484375 -6.703125 C 8.484375 -6.703125 8.484375 -6.8125 8.359375 -6.8125 C 8.0625 -6.8125 7.71875 -6.78125 7.421875 -6.78125 C 7.046875 -6.78125 6.671875 -6.8125 6.3125 -6.8125 C 6.25 -6.8125 6.125 -6.8125 6.125 -6.609375 C 6.125 -6.546875 6.171875 -6.515625 6.234375 -6.5 C 6.328125 -6.484375 6.640625 -6.46875 6.640625 -6.1875 C 6.640625 -6.046875 6.53125 -5.921875 6.453125 -5.828125 Z M 4.828125 -4.09375 "
           id="path3881" />
      </symbol>
    </g>
    <g
       id="g3876">
      <symbol
         overflow="visible"
         id="symbol9147">
        <path
           style="stroke:none;"
           d=""
           id="path6884" />
      </symbol>
      <symbol
         overflow="visible"
         id="symbol2071">
        <path
           style="stroke:none;"
           d="M 2.5 -6.921875 L 1.15625 -5.5625 L 1.328125 -5.390625 L 2.5 -6.40625 L 3.640625 -5.390625 L 3.8125 -5.5625 Z M 2.5 -6.921875 "
           id="path3120" />
      </symbol>
      <symbol
         overflow="visible"
         id="symbol3764">
        <path
           style="stroke:none;"
           d=""
           id="path5095" />
      </symbol>
      <symbol
         overflow="visible"
         id="symbol2332">
        <path
           style="stroke:none;"
           d="M 5.953125 -5.671875 L 6.09375 -5.8125 C 6.390625 -6.109375 6.71875 -6.453125 7.390625 -6.5 C 7.5 -6.515625 7.59375 -6.515625 7.59375 -6.6875 C 7.59375 -6.765625 7.546875 -6.8125 7.46875 -6.8125 C 7.203125 -6.8125 6.921875 -6.78125 6.65625 -6.78125 C 6.3125 -6.78125 5.96875 -6.8125 5.65625 -6.8125 C 5.59375 -6.8125 5.46875 -6.8125 5.46875 -6.625 C 5.46875 -6.515625 5.5625 -6.5 5.609375 -6.5 C 5.6875 -6.5 5.96875 -6.484375 5.96875 -6.265625 C 5.96875 -6.09375 5.734375 -5.84375 5.703125 -5.796875 L 3.390625 -3.125 L 2.296875 -6.09375 C 2.234375 -6.234375 2.234375 -6.25 2.234375 -6.265625 C 2.234375 -6.5 2.71875 -6.5 2.828125 -6.5 C 2.953125 -6.5 3.0625 -6.5 3.0625 -6.703125 C 3.0625 -6.8125 2.9375 -6.8125 2.90625 -6.8125 C 2.625 -6.8125 1.9375 -6.78125 1.65625 -6.78125 C 1.40625 -6.78125 0.78125 -6.8125 0.53125 -6.8125 C 0.484375 -6.8125 0.34375 -6.8125 0.34375 -6.609375 C 0.34375 -6.5 0.453125 -6.5 0.578125 -6.5 C 1.171875 -6.5 1.21875 -6.40625 1.3125 -6.15625 L 2.53125 -2.875 C 2.546875 -2.84375 2.578125 -2.734375 2.578125 -2.71875 C 2.578125 -2.6875 2.171875 -1.078125 2.125 -0.890625 C 2 -0.34375 1.984375 -0.3125 1.1875 -0.3125 C 1 -0.3125 0.921875 -0.3125 0.921875 -0.109375 C 0.921875 0 1.03125 0 1.0625 0 C 1.328125 0 2.03125 -0.03125 2.3125 -0.03125 C 2.59375 -0.03125 3.3125 0 3.59375 0 C 3.65625 0 3.78125 0 3.78125 -0.203125 C 3.78125 -0.3125 3.6875 -0.3125 3.5 -0.3125 C 3.484375 -0.3125 3.296875 -0.3125 3.125 -0.328125 C 2.90625 -0.34375 2.84375 -0.375 2.84375 -0.484375 C 2.84375 -0.5625 2.9375 -0.90625 2.984375 -1.109375 L 3.34375 -2.515625 C 3.390625 -2.71875 3.40625 -2.734375 3.484375 -2.828125 Z M 5.953125 -5.671875 "
           id="path5165" />
      </symbol>
      <symbol
         overflow="visible"
         id="symbol4619">
        <path
           style="stroke:none;"
           d=""
           id="path7844" />
      </symbol>
      <symbol
         overflow="visible"
         id="symbol9860">
        <path
           style="stroke:none;"
           d="M 6.5625 -2.296875 C 6.734375 -2.296875 6.921875 -2.296875 6.921875 -2.5 C 6.921875 -2.6875 6.734375 -2.6875 6.5625 -2.6875 L 1.171875 -2.6875 C 1 -2.6875 0.828125 -2.6875 0.828125 -2.5 C 0.828125 -2.296875 1 -2.296875 1.171875 -2.296875 Z M 6.5625 -2.296875 "
           id="path9396" />
      </symbol>
      <symbol
         overflow="visible"
         id="symbol9223">
        <path
           style="stroke:none;"
           d=""
           id="path3954" />
      </symbol>
      <symbol
         overflow="visible"
         id="symbol6285">
        <path
           style="stroke:none;"
           d="M 2.328125 -4.4375 C 2.328125 -4.625 2.328125 -4.625 2.125 -4.625 C 1.671875 -4.1875 1.046875 -4.1875 0.765625 -4.1875 L 0.765625 -3.9375 C 0.921875 -3.9375 1.390625 -3.9375 1.765625 -4.125 L 1.765625 -0.578125 C 1.765625 -0.34375 1.765625 -0.25 1.078125 -0.25 L 0.8125 -0.25 L 0.8125 0 C 0.9375 0 1.796875 -0.03125 2.046875 -0.03125 C 2.265625 -0.03125 3.140625 0 3.296875 0 L 3.296875 -0.25 L 3.03125 -0.25 C 2.328125 -0.25 2.328125 -0.34375 2.328125 -0.578125 Z M 2.328125 -4.4375 "
           id="path6397" />
      </symbol>
    </g>
    <g
       id="g2977">
      <symbol
         overflow="visible"
         id="symbol5896">
        <path
           style="stroke:none;"
           d=""
           id="path5724" />
      </symbol>
      <symbol
         overflow="visible"
         id="symbol4289">
        <path
           style="stroke:none;"
           d="M 2.5 -6.921875 L 1.15625 -5.5625 L 1.328125 -5.390625 L 2.5 -6.40625 L 3.640625 -5.390625 L 3.8125 -5.5625 Z M 2.5 -6.921875 "
           id="path5689" />
      </symbol>
      <symbol
         overflow="visible"
         id="symbol8974">
        <path
           style="stroke:none;"
           d=""
           id="path8424" />
      </symbol>
      <symbol
         overflow="visible"
         id="symbol8384">
        <path
           style="stroke:none;"
           d="M 5.953125 -5.671875 L 6.09375 -5.8125 C 6.390625 -6.109375 6.71875 -6.453125 7.390625 -6.5 C 7.5 -6.515625 7.59375 -6.515625 7.59375 -6.6875 C 7.59375 -6.765625 7.546875 -6.8125 7.46875 -6.8125 C 7.203125 -6.8125 6.921875 -6.78125 6.65625 -6.78125 C 6.3125 -6.78125 5.96875 -6.8125 5.65625 -6.8125 C 5.59375 -6.8125 5.46875 -6.8125 5.46875 -6.625 C 5.46875 -6.515625 5.5625 -6.5 5.609375 -6.5 C 5.6875 -6.5 5.96875 -6.484375 5.96875 -6.265625 C 5.96875 -6.09375 5.734375 -5.84375 5.703125 -5.796875 L 3.390625 -3.125 L 2.296875 -6.09375 C 2.234375 -6.234375 2.234375 -6.25 2.234375 -6.265625 C 2.234375 -6.5 2.71875 -6.5 2.828125 -6.5 C 2.953125 -6.5 3.0625 -6.5 3.0625 -6.703125 C 3.0625 -6.8125 2.9375 -6.8125 2.90625 -6.8125 C 2.625 -6.8125 1.9375 -6.78125 1.65625 -6.78125 C 1.40625 -6.78125 0.78125 -6.8125 0.53125 -6.8125 C 0.484375 -6.8125 0.34375 -6.8125 0.34375 -6.609375 C 0.34375 -6.5 0.453125 -6.5 0.578125 -6.5 C 1.171875 -6.5 1.21875 -6.40625 1.3125 -6.15625 L 2.53125 -2.875 C 2.546875 -2.84375 2.578125 -2.734375 2.578125 -2.71875 C 2.578125 -2.6875 2.171875 -1.078125 2.125 -0.890625 C 2 -0.34375 1.984375 -0.3125 1.1875 -0.3125 C 1 -0.3125 0.921875 -0.3125 0.921875 -0.109375 C 0.921875 0 1.03125 0 1.0625 0 C 1.328125 0 2.03125 -0.03125 2.3125 -0.03125 C 2.59375 -0.03125 3.3125 0 3.59375 0 C 3.65625 0 3.78125 0 3.78125 -0.203125 C 3.78125 -0.3125 3.6875 -0.3125 3.5 -0.3125 C 3.484375 -0.3125 3.296875 -0.3125 3.125 -0.328125 C 2.90625 -0.34375 2.84375 -0.375 2.84375 -0.484375 C 2.84375 -0.5625 2.9375 -0.90625 2.984375 -1.109375 L 3.34375 -2.515625 C 3.390625 -2.71875 3.40625 -2.734375 3.484375 -2.828125 Z M 5.953125 -5.671875 "
           id="path5201" />
      </symbol>
      <symbol
         overflow="visible"
         id="symbol5413">
        <path
           style="stroke:none;"
           d=""
           id="path3682" />
      </symbol>
      <symbol
         overflow="visible"
         id="symbol1424">
        <path
           style="stroke:none;"
           d="M 6.5625 -2.296875 C 6.734375 -2.296875 6.921875 -2.296875 6.921875 -2.5 C 6.921875 -2.6875 6.734375 -2.6875 6.5625 -2.6875 L 1.171875 -2.6875 C 1 -2.6875 0.828125 -2.6875 0.828125 -2.5 C 0.828125 -2.296875 1 -2.296875 1.171875 -2.296875 Z M 6.5625 -2.296875 "
           id="path8440" />
      </symbol>
      <symbol
         overflow="visible"
         id="symbol4296">
        <path
           style="stroke:none;"
           d=""
           id="path6158" />
      </symbol>
      <symbol
         overflow="visible"
         id="symbol5075">
        <path
           style="stroke:none;"
           d="M 2.328125 -4.4375 C 2.328125 -4.625 2.328125 -4.625 2.125 -4.625 C 1.671875 -4.1875 1.046875 -4.1875 0.765625 -4.1875 L 0.765625 -3.9375 C 0.921875 -3.9375 1.390625 -3.9375 1.765625 -4.125 L 1.765625 -0.578125 C 1.765625 -0.34375 1.765625 -0.25 1.078125 -0.25 L 0.8125 -0.25 L 0.8125 0 C 0.9375 0 1.796875 -0.03125 2.046875 -0.03125 C 2.265625 -0.03125 3.140625 0 3.296875 0 L 3.296875 -0.25 L 3.03125 -0.25 C 2.328125 -0.25 2.328125 -0.34375 2.328125 -0.578125 Z M 2.328125 -4.4375 "
           id="path230" />
      </symbol>
    </g>
    <g
       id="g4859">
      <symbol
         overflow="visible"
         id="symbol5615">
        <path
           style="stroke:none;"
           d=""
           id="path5944" />
      </symbol>
      <symbol
         overflow="visible"
         id="symbol6459">
        <path
           style="stroke:none;"
           d="M 2.5 -6.921875 L 1.15625 -5.5625 L 1.328125 -5.390625 L 2.5 -6.40625 L 3.640625 -5.390625 L 3.8125 -5.5625 Z M 2.5 -6.921875 "
           id="path3535" />
      </symbol>
      <symbol
         overflow="visible"
         id="symbol6047">
        <path
           style="stroke:none;"
           d=""
           id="path2796" />
      </symbol>
      <symbol
         overflow="visible"
         id="symbol5064">
        <path
           style="stroke:none;"
           d="M 5.953125 -5.671875 L 6.09375 -5.8125 C 6.390625 -6.109375 6.71875 -6.453125 7.390625 -6.5 C 7.5 -6.515625 7.59375 -6.515625 7.59375 -6.6875 C 7.59375 -6.765625 7.546875 -6.8125 7.46875 -6.8125 C 7.203125 -6.8125 6.921875 -6.78125 6.65625 -6.78125 C 6.3125 -6.78125 5.96875 -6.8125 5.65625 -6.8125 C 5.59375 -6.8125 5.46875 -6.8125 5.46875 -6.625 C 5.46875 -6.515625 5.5625 -6.5 5.609375 -6.5 C 5.6875 -6.5 5.96875 -6.484375 5.96875 -6.265625 C 5.96875 -6.09375 5.734375 -5.84375 5.703125 -5.796875 L 3.390625 -3.125 L 2.296875 -6.09375 C 2.234375 -6.234375 2.234375 -6.25 2.234375 -6.265625 C 2.234375 -6.5 2.71875 -6.5 2.828125 -6.5 C 2.953125 -6.5 3.0625 -6.5 3.0625 -6.703125 C 3.0625 -6.8125 2.9375 -6.8125 2.90625 -6.8125 C 2.625 -6.8125 1.9375 -6.78125 1.65625 -6.78125 C 1.40625 -6.78125 0.78125 -6.8125 0.53125 -6.8125 C 0.484375 -6.8125 0.34375 -6.8125 0.34375 -6.609375 C 0.34375 -6.5 0.453125 -6.5 0.578125 -6.5 C 1.171875 -6.5 1.21875 -6.40625 1.3125 -6.15625 L 2.53125 -2.875 C 2.546875 -2.84375 2.578125 -2.734375 2.578125 -2.71875 C 2.578125 -2.6875 2.171875 -1.078125 2.125 -0.890625 C 2 -0.34375 1.984375 -0.3125 1.1875 -0.3125 C 1 -0.3125 0.921875 -0.3125 0.921875 -0.109375 C 0.921875 0 1.03125 0 1.0625 0 C 1.328125 0 2.03125 -0.03125 2.3125 -0.03125 C 2.59375 -0.03125 3.3125 0 3.59375 0 C 3.65625 0 3.78125 0 3.78125 -0.203125 C 3.78125 -0.3125 3.6875 -0.3125 3.5 -0.3125 C 3.484375 -0.3125 3.296875 -0.3125 3.125 -0.328125 C 2.90625 -0.34375 2.84375 -0.375 2.84375 -0.484375 C 2.84375 -0.5625 2.9375 -0.90625 2.984375 -1.109375 L 3.34375 -2.515625 C 3.390625 -2.71875 3.40625 -2.734375 3.484375 -2.828125 Z M 5.953125 -5.671875 "
           id="path176" />
      </symbol>
      <symbol
         overflow="visible"
         id="symbol960">
        <path
           style="stroke:none;"
           d=""
           id="path1322" />
      </symbol>
      <symbol
         overflow="visible"
         id="symbol1913">
        <path
           style="stroke:none;"
           d="M 6.5625 -2.296875 C 6.734375 -2.296875 6.921875 -2.296875 6.921875 -2.5 C 6.921875 -2.6875 6.734375 -2.6875 6.5625 -2.6875 L 1.171875 -2.6875 C 1 -2.6875 0.828125 -2.6875 0.828125 -2.5 C 0.828125 -2.296875 1 -2.296875 1.171875 -2.296875 Z M 6.5625 -2.296875 "
           id="path6768" />
      </symbol>
      <symbol
         overflow="visible"
         id="symbol8109">
        <path
           style="stroke:none;"
           d=""
           id="path354" />
      </symbol>
      <symbol
         overflow="visible"
         id="symbol9864">
        <path
           style="stroke:none;"
           d="M 3.515625 -1.265625 L 3.28125 -1.265625 C 3.265625 -1.109375 3.1875 -0.703125 3.09375 -0.640625 C 3.046875 -0.59375 2.515625 -0.59375 2.40625 -0.59375 L 1.125 -0.59375 C 1.859375 -1.234375 2.109375 -1.4375 2.515625 -1.765625 C 3.03125 -2.171875 3.515625 -2.609375 3.515625 -3.265625 C 3.515625 -4.109375 2.78125 -4.625 1.890625 -4.625 C 1.03125 -4.625 0.4375 -4.015625 0.4375 -3.375 C 0.4375 -3.03125 0.734375 -2.984375 0.8125 -2.984375 C 0.96875 -2.984375 1.171875 -3.109375 1.171875 -3.359375 C 1.171875 -3.484375 1.125 -3.734375 0.765625 -3.734375 C 0.984375 -4.21875 1.453125 -4.375 1.78125 -4.375 C 2.484375 -4.375 2.84375 -3.828125 2.84375 -3.265625 C 2.84375 -2.65625 2.40625 -2.1875 2.1875 -1.9375 L 0.515625 -0.265625 C 0.4375 -0.203125 0.4375 -0.1875 0.4375 0 L 3.3125 0 Z M 3.515625 -1.265625 "
           id="path3147" />
      </symbol>
    </g>
  </defs>
  <g
     class="bglayer"
     id="g25">
    <rect
       class="bg"
       x="80"
       y="100"
       width="540"
       height="320"
       style="fill: rgb(229, 236, 246); fill-opacity: 1; stroke-width: 0;"
       id="rect23" />
  </g>
  <g
     class="layer-below"
     id="g31">
    <g
       class="imagelayer"
       id="g27" />
    <g
       class="shapelayer"
       id="g29" />
  </g>
  <g
     class="cartesianlayer"
     id="g167">
    <g
       class="subplot xy"
       id="g165">
      <g
         class="layer-subplot"
         id="g37">
        <g
           class="shapelayer"
           id="g33" />
        <g
           class="imagelayer"
           id="g35" />
      </g>
      <g
         class="gridlayer"
         id="g61">
        <g
           class="x"
           id="g47">
          <path
             class="xgrid crisp"
             transform="translate(177,0)"
             d="M0,100v320"
             style="stroke: rgb(255, 255, 255); stroke-opacity: 1; stroke-width: 1px;"
             id="path39" />
          <path
             class="xgrid crisp"
             transform="translate(372.16,0)"
             d="M0,100v320"
             style="stroke: rgb(255, 255, 255); stroke-opacity: 1; stroke-width: 1px;"
             id="path41" />
          <path
             class="xgrid crisp"
             transform="translate(469.73,0)"
             d="M0,100v320"
             style="stroke: rgb(255, 255, 255); stroke-opacity: 1; stroke-width: 1px;"
             id="path43" />
          <path
             class="xgrid crisp"
             transform="translate(567.31,0)"
             d="M0,100v320"
             style="stroke: rgb(255, 255, 255); stroke-opacity: 1; stroke-width: 1px;"
             id="path45" />
        </g>
        <g
           class="y"
           id="g59">
          <path
             class="ygrid crisp"
             transform="translate(0,374.29)"
             d="M80,0h540"
             style="stroke: rgb(255, 255, 255); stroke-opacity: 1; stroke-width: 1px;"
             id="path49" />
          <path
             class="ygrid crisp"
             transform="translate(0,328.57)"
             d="M80,0h540"
             style="stroke: rgb(255, 255, 255); stroke-opacity: 1; stroke-width: 1px;"
             id="path51" />
          <path
             class="ygrid crisp"
             transform="translate(0,237.14)"
             d="M80,0h540"
             style="stroke: rgb(255, 255, 255); stroke-opacity: 1; stroke-width: 1px;"
             id="path53" />
          <path
             class="ygrid crisp"
             transform="translate(0,191.43)"
             d="M80,0h540"
             style="stroke: rgb(255, 255, 255); stroke-opacity: 1; stroke-width: 1px;"
             id="path55" />
          <path
             class="ygrid crisp"
             transform="translate(0,145.71)"
             d="M80,0h540"
             style="stroke: rgb(255, 255, 255); stroke-opacity: 1; stroke-width: 1px;"
             id="path57" />
        </g>
      </g>
      <g
         class="zerolinelayer"
         id="g67">
        <path
           class="xzl zl crisp"
           transform="translate(274.58000000000004,0)"
           d="M0,100v320"
           style="stroke: rgb(255, 255, 255); stroke-opacity: 1; stroke-width: 2px;"
           id="path63" />
        <path
           class="yzl zl crisp"
           transform="translate(0,282.86)"
           d="M80,0h540"
           style="stroke: rgb(255, 255, 255); stroke-opacity: 1; stroke-width: 2px;"
           id="path65" />
      </g>
      <path
         class="xlines-below"
         id="path69" />
      <path
         class="ylines-below"
         id="path71" />
      <g
         class="overlines-below"
         id="g73" />
      <g
         class="xaxislayer-below"
         id="g75" />
      <g
         class="yaxislayer-below"
         id="g77" />
      <g
         class="overaxes-below"
         id="g79" />
      <g
         class="plot"
         transform="translate(80,100)"
         clip-path="url(#clipb3459axyplot)"
         id="g97">
        <g
           class="scatterlayer mlayer"
           id="g95">
          <g
             class="trace scatter tracee22315"
             style="stroke-miterlimit: 2; opacity: 0.8;"
             id="g93">
            <g
               class="fills"
               id="g81" />
            <g
               class="errorbars"
               id="g83" />
            <g
               class="lines"
               id="g87">
              <path
                 class="js-line"
                 d="M0,183.54L25.13,180.85L33.8,183.4L56.55,182.8L63.06,189L67.67,170.89L69.11,184.43L80.73,189.48L86.45,186.51L89.11,188.52L91.35,195.48L91.38,179.59L91.85,192.86L106.88,199.67L108.34,186.24L114.38,202.72L123.27,193.28L124.94,175.88L138.57,186.3L139.5,204.76L139.97,158.33L140.84,208.13L143.69,179.44L144.88,128.87L147.84,156.52L153.2,162.37L163.86,187.68L165.72,173.15L168.49,169.71L178.78,204.01L179.32,231.57L179.74,186.76L184.12,135.66L184.73,194.24L185.69,168.61L185.69,196.44L187.24,159.58L189.31,204.35L190.39,203.61L190.62,208.34L194.07,215.82L197.04,194.25L197.35,175.39L208.92,215.67L209.93,135.84L212.62,185.28L213.59,171.6L214.8,177.21L215.33,117.35L216.24,258.38L217.02,131.3L223.52,179.08L226.82,119.22L227.3,256.89L228.32,145.27L232.2,201.86L232.66,201.07L233.19,217.39L233.3,111.96L233.88,139.59L236.17,234.74L243.33,131.71L244.91,248.14L244.95,168.62L246.06,214.84L247.31,114.81L248.56,170.23L248.65,183.04L249.83,137.53L250.46,214.84L253.94,144.83L254.99,88.38L255.67,184.88L256.57,114.4L258.31,156.88L259.38,119.62L262.35,201.34L265.08,169.74L265.78,203.63L267.01,167.77L268.76,243.85L270.45,239.27L271.72,95.69L272.28,237.03L272.94,160.86L273.52,120.08L273.9,177.28L275.13,95.22L275.18,175.53L275.36,218.85L278.25,192.34L278.76,286.82L279.79,164.96L280.31,276.65L282.79,204.32L283.56,213.06L286.13,184.4L286.9,223.68L288.39,158.45L289.57,272.88L290.95,193.37L291.72,197.88L291.83,174.6L291.89,126.58L294.05,115.06L294.06,169.69L294.85,156.48L296.29,137.94L297.26,228.45L299.14,167.19L299.19,213.44L299.84,193.85L301,203.4L301.95,140.31L302.07,254.84L304.08,260.63L304.5,180.31L304.81,139.48L308.84,145.25L311.69,201.89L311.93,278.83L314.66,182.51L316.16,162.01L317.32,166.25L317.62,206.93L318.06,172.88L318.79,254.26L320.69,184.77L320.86,149.54L321.46,201.29L322.31,167.66L324.59,160.87L324.73,242.26L325,193.43L327.61,138.54L328.18,198.58L329.55,201.85L329.94,177.73L330.71,246.04L330.71,180.57L332.09,147.3L332.35,147.28L332.91,185.7L340.38,166.53L341.36,196.55L345.89,201.74L346.7,226.9L347.48,197.21L350.43,232.08L350.55,144.74L351.02,232.32L351.83,143.19L353.57,171.56L356.93,176.08L366.13,175.49L367.9,156.71L368.23,157.6L368.64,226L369.76,103.42L372.8,160.09L373.36,219.81L374.66,192.42L375.69,224.8L378.21,202.43L385.86,191.26L386.94,191.16L390.38,190.83L390.46,206.32L390.87,204.66L391.83,193.9L395.34,158.56L398.64,185.91L399.99,194.68L401.25,165.76L403.56,184.46L409.07,212.26L415.8,199.15L417.99,175.52L419.47,200.99L425.61,163.16L430.76,188.38L433.32,189.75L443.14,188.29L448.99,180.89L451.32,166.94L458.89,176.78L459.9,179.08L462.81,170.97L491.49,175.55L498.28,182.93L500.79,182.47L536.78,182.03L540,182.93"
                 style="vector-effect: non-scaling-stroke; fill: none; stroke: rgb(0, 0, 255); stroke-opacity: 1; stroke-width: 2px; opacity: 1;"
                 id="path85" />
            </g>
            <g
               class="points"
               id="g89" />
            <g
               class="text"
               id="g91" />
          </g>
        </g>
      </g>
      <g
         class="overplot"
         id="g99" />
      <path
         class="xlines-above crisp"
         d="M0,0"
         style="fill: none;"
         id="path101" />
      <path
         class="ylines-above crisp"
         d="M0,0"
         style="fill: none;"
         id="path103" />
      <g
         class="overlines-above"
         id="g105" />
      <g
         class="xaxislayer-above"
         id="g127">
        <g
           class="xtick"
           id="g109">
          <text
             text-anchor="middle"
             x="0"
             y="433"
             transform="translate(177,0)"
             style="font-family: 'Open Sans', verdana, arial, sans-serif; font-size: 12px; fill: rgb(42, 63, 95); fill-opacity: 1; white-space: pre; opacity: 1;"
             id="text107">−5</text>
        </g>
        <g
           class="xtick"
           id="g113">
          <text
             text-anchor="middle"
             x="0"
             y="433"
             style="font-family: 'Open Sans', verdana, arial, sans-serif; font-size: 12px; fill: rgb(42, 63, 95); fill-opacity: 1; white-space: pre; opacity: 1;"
             transform="translate(274.58000000000004,0)"
             id="text111">0</text>
        </g>
        <g
           class="xtick"
           id="g117">
          <text
             text-anchor="middle"
             x="0"
             y="433"
             style="font-family: 'Open Sans', verdana, arial, sans-serif; font-size: 12px; fill: rgb(42, 63, 95); fill-opacity: 1; white-space: pre; opacity: 1;"
             transform="translate(372.16,0)"
             id="text115">5</text>
        </g>
        <g
           class="xtick"
           id="g121">
          <text
             text-anchor="middle"
             x="0"
             y="433"
             style="font-family: 'Open Sans', verdana, arial, sans-serif; font-size: 12px; fill: rgb(42, 63, 95); fill-opacity: 1; white-space: pre; opacity: 1;"
             transform="translate(469.73,0)"
             id="text119">10</text>
        </g>
        <g
           class="xtick"
           id="g125">
          <text
             text-anchor="middle"
             x="0"
             y="433"
             style="font-family: 'Open Sans', verdana, arial, sans-serif; font-size: 12px; fill: rgb(42, 63, 95); fill-opacity: 1; white-space: pre; opacity: 1;"
             transform="translate(567.31,0)"
             id="text123">15</text>
        </g>
      </g>
      <g
         class="yaxislayer-above"
         id="g161">
        <g
           class="ytick"
           id="g131">
          <text
             text-anchor="end"
             x="79"
             y="4.199999999999999"
             transform="translate(0,420)"
             style="font-family: 'Open Sans', verdana, arial, sans-serif; font-size: 12px; fill: rgb(42, 63, 95); fill-opacity: 1; white-space: pre; opacity: 1;"
             id="text129">−15</text>
        </g>
        <g
           class="ytick"
           id="g135">
          <text
             text-anchor="end"
             x="79"
             y="4.199999999999999"
             style="font-family: 'Open Sans', verdana, arial, sans-serif; font-size: 12px; fill: rgb(42, 63, 95); fill-opacity: 1; white-space: pre; opacity: 1;"
             transform="translate(0,374.29)"
             id="text133">−10</text>
        </g>
        <g
           class="ytick"
           id="g139">
          <text
             text-anchor="end"
             x="79"
             y="4.199999999999999"
             style="font-family: 'Open Sans', verdana, arial, sans-serif; font-size: 12px; fill: rgb(42, 63, 95); fill-opacity: 1; white-space: pre; opacity: 1;"
             transform="translate(0,328.57)"
             id="text137">−5</text>
        </g>
        <g
           class="ytick"
           id="g143">
          <text
             text-anchor="end"
             x="79"
             y="4.199999999999999"
             style="font-family: 'Open Sans', verdana, arial, sans-serif; font-size: 12px; fill: rgb(42, 63, 95); fill-opacity: 1; white-space: pre; opacity: 1;"
             transform="translate(0,282.86)"
             id="text141">0</text>
        </g>
        <g
           class="ytick"
           id="g147">
          <text
             text-anchor="end"
             x="79"
             y="4.199999999999999"
             style="font-family: 'Open Sans', verdana, arial, sans-serif; font-size: 12px; fill: rgb(42, 63, 95); fill-opacity: 1; white-space: pre; opacity: 1;"
             transform="translate(0,237.14)"
             id="text145">5</text>
        </g>
        <g
           class="ytick"
           id="g151">
          <text
             text-anchor="end"
             x="79"
             y="4.199999999999999"
             style="font-family: 'Open Sans', verdana, arial, sans-serif; font-size: 12px; fill: rgb(42, 63, 95); fill-opacity: 1; white-space: pre; opacity: 1;"
             transform="translate(0,191.43)"
             id="text149">10</text>
        </g>
        <g
           class="ytick"
           id="g155">
          <text
             text-anchor="end"
             x="79"
             y="4.199999999999999"
             style="font-family: 'Open Sans', verdana, arial, sans-serif; font-size: 12px; fill: rgb(42, 63, 95); fill-opacity: 1; white-space: pre; opacity: 1;"
             transform="translate(0,145.71)"
             id="text153">15</text>
        </g>
        <g
           class="ytick"
           id="g159">
          <text
             text-anchor="end"
             x="79"
             y="4.199999999999999"
             style="font-family: 'Open Sans', verdana, arial, sans-serif; font-size: 12px; fill: rgb(42, 63, 95); fill-opacity: 1; white-space: pre; opacity: 1;"
             transform="translate(0,100)"
             id="text157">20</text>
        </g>
      </g>
      <g
         class="overaxes-above"
         id="g163" />
    </g>
  </g>
  <g
     class="polarlayer"
     id="g169" />
  <g
     class="smithlayer"
     id="g171" />
  <g
     class="ternarylayer"
     id="g173" />
  <g
     class="geolayer"
     id="g175" />
  <g
     class="funnelarealayer"
     id="g177" />
  <g
     class="pielayer"
     id="g179" />
  <g
     class="iciclelayer"
     id="g181" />
  <g
     class="treemaplayer"
     id="g183" />
  <g
     class="sunburstlayer"
     id="g185" />
  <g
     class="glimages"
     id="g187" />
  <defs
     id="topdefs-b3459a">
    <g
       class="clips"
       id="g189" />
  </defs>
  <g
     class="layer-above"
     id="g196">
    <g
       class="imagelayer"
       id="g192" />
    <g
       class="shapelayer"
       id="g194" />
  </g>
  <g
     class="infolayer"
     id="g204">
    <g
       class="g-gtitle"
       id="g198" />
    <g
       class="g-xtitle"
       id="g200" />
    <g
       class="g-ytitle"
       id="g202" />
  </g>
  <g
     inkscape:label=""
     transform="matrix(2.0102428,0,0,2.0102428,-578.18861,94.41985)"
     id="g989">
    <g
       inkscape:label=""
       transform="translate(160.26597,86.33784)"
       id="g700">
      <g
         id="g9636">
        <g
           style="fill:#000000;fill-opacity:1"
           id="g3758">
          <g
             id="use5540"
             transform="translate(301.48199,93.917999)">
            <path
               style="stroke:none"
               d="M 4.828125,-4.09375 4,-6.078125 c -0.03125,-0.078125 -0.046875,-0.125 -0.046875,-0.125 0,-0.0625 0.15625,-0.25 0.578125,-0.296875 0.109375,-0.015625 0.203125,-0.015625 0.203125,-0.1875 0,-0.125 -0.125,-0.125 -0.15625,-0.125 -0.40625,0 -0.828125,0.03125 -1.25,0.03125 -0.25,0 -0.859375,-0.03125 -1.109375,-0.03125 -0.0625,0 -0.1875,0 -0.1875,0.203125 C 2.03125,-6.5 2.140625,-6.5 2.265625,-6.5 c 0.59375,0 0.65625,0.09375 0.75,0.3125 l 1.171875,2.78125 -2.109375,2.265625 -0.125,0.109375 C 1.46875,-0.5 1,-0.34375 0.484375,-0.3125 c -0.125,0.015625 -0.21875,0.015625 -0.21875,0.203125 0,0.015625 0,0.109375 0.140625,0.109375 0.296875,0 0.625,-0.03125 0.921875,-0.03125 C 1.703125,-0.03125 2.09375,0 2.453125,0 2.515625,0 2.625,0 2.625,-0.203125 2.625,-0.296875 2.53125,-0.3125 2.515625,-0.3125 c -0.09375,0 -0.40625,-0.03125 -0.40625,-0.3125 0,-0.15625 0.15625,-0.3125 0.265625,-0.4375 L 3.40625,-2.140625 4.296875,-3.125 l 1,2.390625 c 0.046875,0.109375 0.0625,0.109375 0.0625,0.140625 0,0.078125 -0.203125,0.25 -0.578125,0.28125 C 4.671875,-0.296875 4.578125,-0.296875 4.578125,-0.125 4.578125,0 4.6875,0 4.71875,0 5,0 5.703125,-0.03125 5.984375,-0.03125 6.234375,-0.03125 6.84375,0 7.09375,0 c 0.0625,0 0.1875,0 0.1875,-0.1875 0,-0.125 -0.109375,-0.125 -0.1875,-0.125 -0.65625,0 -0.6875,-0.03125 -0.859375,-0.4375 C 5.859375,-1.671875 5.1875,-3.234375 4.953125,-3.828125 5.625,-4.53125 6.671875,-5.71875 7,-5.984375 7.28125,-6.234375 7.671875,-6.46875 8.265625,-6.5 c 0.125,-0.015625 0.21875,-0.015625 0.21875,-0.203125 0,0 0,-0.109375 -0.125,-0.109375 -0.296875,0 -0.640625,0.03125 -0.9375,0.03125 -0.375,0 -0.75,-0.03125 -1.109375,-0.03125 -0.0625,0 -0.1875,0 -0.1875,0.203125 0,0.0625 0.046875,0.09375 0.109375,0.109375 0.09375,0.015625 0.40625,0.03125 0.40625,0.3125 0,0.140625 -0.109375,0.265625 -0.1875,0.359375 z m 0,0"
               id="path275" />
          </g>
        </g>
      </g>
    </g>
  </g>
  <g
     inkscape:label=""
     transform="matrix(1.8594198,0,0,1.8594198,-529.60578,107.72259)"
     id="g2273">
    <g
       id="g1005">
      <g
         style="fill:#000000;fill-opacity:1"
         id="g9876">
        <use
           xlink:href="#symbol6459"
           x="292.29401"
           y="91.400002"
           id="use3259"
           width="100%"
           height="100%" />
      </g>
      <g
         style="fill:#000000;fill-opacity:1"
         id="g541">
        <use
           xlink:href="#symbol5064"
           x="290.78601"
           y="93.917999"
           id="use6229"
           width="100%"
           height="100%" />
      </g>
      <g
         style="fill:#000000;fill-opacity:1"
         id="g3766">
        <use
           xlink:href="#symbol1913"
           x="300.99799"
           y="93.917999"
           id="use5519"
           width="100%"
           height="100%" />
      </g>
      <g
         style="fill:#000000;fill-opacity:1"
         id="g4643">
        <use
           xlink:href="#symbol5064"
           x="310.95999"
           y="93.917999"
           id="use3255"
           width="100%"
           height="100%" />
      </g>
      <g
         style="fill:#000000;fill-opacity:1"
         id="g8071">
        <use
           xlink:href="#symbol9864"
           x="316.74399"
           y="95.412003"
           id="use405"
           width="100%"
           height="100%" />
      </g>
    </g>
  </g>
</svg>
